<?xml version="1.0" encoding="UTF-8" standalone="no"?>
<!-- Generator: Adobe Illustrator 19.0.0, SVG Export Plug-In . SVG Version: 6.00 Build 0)  -->

<svg
   version="1.1"
   id="Layer_1"
   x="0px"
   y="0px"
   viewBox="0 0 192.97 192.97"
   style="enable-background:new 0 0 192.97 192.97;"
   xml:space="preserve"
   sodipodi:docname="email-svgrepo-com.svg"
   inkscape:version="1.2.1 (9c6d41e410, 2022-07-14)"
   xmlns:inkscape="http://www.inkscape.org/namespaces/inkscape"
   xmlns:sodipodi="http://sodipodi.sourceforge.net/DTD/sodipodi-0.dtd"
   xmlns="http://www.w3.org/2000/svg"
   xmlns:svg="http://www.w3.org/2000/svg"><defs
   id="defs126" /><sodipodi:namedview
   id="namedview124"
   pagecolor="#ffffff"
   bordercolor="#000000"
   borderopacity="0.25"
   inkscape:showpageshadow="2"
   inkscape:pageopacity="0.0"
   inkscape:pagecheckerboard="0"
   inkscape:deskcolor="#d1d1d1"
   showgrid="false"
   inkscape:zoom="3.0963633"
   inkscape:cx="86.068712"
   inkscape:cy="89.782746"
   inkscape:window-width="1920"
   inkscape:window-height="1011"
   inkscape:window-x="1280"
   inkscape:window-y="32"
   inkscape:window-maximized="1"
   inkscape:current-layer="Layer_1" />
<g
   id="g91"
   transform="matrix(1.278855,0,0,1.278855,-26.906603,32.542251)">
	<g
   id="g89">
		<g
   id="g87">
			<path
   d="m 34.517,100 h 123.938 c 6.633,0 12.031,-5.385 12.031,-12.004 V 12.004 c 0,-6.588 -5.35,-11.943 -11.94,-11.994 C 158.525,0.009 158.506,0 158.486,0 H 158.455 34.517 34.486 c -0.021,0 -0.04,0.009 -0.06,0.01 -6.59,0.051 -11.94,5.406 -11.94,11.994 V 87.996 C 22.484,94.615 27.883,100 34.517,100 Z m 1.256,-8 40.999,-44.416 17.034,15.385 c 0.761,0.687 1.719,1.031 2.678,1.031 0.96,0 1.918,-0.344 2.68,-1.031 l 17.033,-15.385 41,44.416 z M 159.737,8.257 c 1.586,0.539 2.748,1.99 2.748,3.746 V 85.938 L 122.133,42.223 Z M 148.091,8 96.484,54.609 44.88,8 Z M 30.484,12.004 c 0,-1.756 1.162,-3.207 2.748,-3.746 L 70.836,42.224 30.484,85.938 Z"
   id="path81" />
			
			
		</g>
	</g>
</g>
<g
   id="g93">
</g>
<g
   id="g95">
</g>
<g
   id="g97">
</g>
<g
   id="g99">
</g>
<g
   id="g101">
</g>
<g
   id="g103">
</g>
<g
   id="g105">
</g>
<g
   id="g107">
</g>
<g
   id="g109">
</g>
<g
   id="g111">
</g>
<g
   id="g113">
</g>
<g
   id="g115">
</g>
<g
   id="g117">
</g>
<g
   id="g119">
</g>
<g
   id="g121">
</g>
</svg>
