<?xml version="1.0" encoding="UTF-8" standalone="no"?>
<svg
   width="32"
   height="32"
   viewBox="0 0 32 32"
   shape-rendering="geometricPrecision"
   fill="#24437c"
   version="1.1"
   id="svg4"
   sodipodi:docname="studIp.svg"
   inkscape:version="1.2.1 (9c6d41e410, 2022-07-14)"
   xmlns:inkscape="http://www.inkscape.org/namespaces/inkscape"
   xmlns:sodipodi="http://sodipodi.sourceforge.net/DTD/sodipodi-0.dtd"
   xmlns="http://www.w3.org/2000/svg"
   xmlns:svg="http://www.w3.org/2000/svg">
  <defs
     id="defs8" />
  <sodipodi:namedview
     id="namedview6"
     pagecolor="#ffffff"
     bordercolor="#000000"
     borderopacity="0.25"
     inkscape:showpageshadow="2"
     inkscape:pageopacity="0.0"
     inkscape:pagecheckerboard="0"
     inkscape:deskcolor="#d1d1d1"
     showgrid="false"
     inkscape:zoom="18.672038"
     inkscape:cx="6.2392759"
     inkscape:cy="17.405705"
     inkscape:window-width="1920"
     inkscape:window-height="1011"
     inkscape:window-x="1280"
     inkscape:window-y="32"
     inkscape:window-maximized="1"
     inkscape:current-layer="svg4" />
  <path
     d="M 16.002282,0.0892775 A 15.919849,15.919849 0 0 0 0.0892775,15.990874 H 4.8278164 A 11.179028,11.179028 0 0 1 16,4.8209722 11.179028,11.179028 0 0 1 27.176746,15.993156 11.179028,11.179028 0 0 1 16.002282,27.172184 v 4.738539 A 15.917567,15.917567 0 0 0 31.910722,15.993156 15.90844,15.90844 0 0 0 16.002282,0.0892775 Z M 21.979639,15.993156 A 5.9773578,5.9773578 0 0 0 16,10.022641 a 5.9762176,5.9762176 0 0 0 0,11.952436 5.9842021,5.9842021 0 0 0 5.979639,-5.981921 z"
     id="path2"
     style="stroke-width:2.28143" />
</svg>
