<?xml version="1.0" encoding="UTF-8" standalone="no"?>
<!-- Created with Inkscape (http://www.inkscape.org/) -->

<svg
   width="128"
   height="128"
   viewBox="0 0 21.333333 21.333333"
   version="1.1"
   id="svg5"
   xml:space="preserve"
   inkscape:version="1.2.1 (9c6d41e410, 2022-07-14)"
   sodipodi:docname="studip_mail.svg"
   xmlns:inkscape="http://www.inkscape.org/namespaces/inkscape"
   xmlns:sodipodi="http://sodipodi.sourceforge.net/DTD/sodipodi-0.dtd"
   xmlns="http://www.w3.org/2000/svg"
   xmlns:svg="http://www.w3.org/2000/svg"><sodipodi:namedview
     id="namedview7"
     pagecolor="#ffffff"
     bordercolor="#000000"
     borderopacity="0.25"
     inkscape:showpageshadow="2"
     inkscape:pageopacity="0.0"
     inkscape:pagecheckerboard="0"
     inkscape:deskcolor="#d1d1d1"
     inkscape:document-units="mm"
     showgrid="false"
     inkscape:zoom="4"
     inkscape:cx="5.625"
     inkscape:cy="57"
     inkscape:window-width="1920"
     inkscape:window-height="1011"
     inkscape:window-x="1280"
     inkscape:window-y="32"
     inkscape:window-maximized="1"
     inkscape:current-layer="layer1" /><defs
     id="defs2" /><g
     inkscape:label="Ebene 1"
     inkscape:groupmode="layer"
     id="layer1"><path
       d="M 10.667958,1.6624857 A 9.0093453,9.0093453 0 0 0 1.6624865,10.661502 H 4.3441156 A 6.3264245,6.3264245 0 0 1 10.666667,4.3402416 6.3264245,6.3264245 0 0 1 16.9918,10.662793 6.3264245,6.3264245 0 0 1 10.667958,16.989217 v 2.68163 a 9.0080535,9.0080535 0 0 0 9.002888,-9.008054 9.0028886,9.0028886 0 0 0 -9.002888,-9.0003073 z m 3.3827,9.0003073 a 3.3827004,3.3827004 0 0 0 -3.383991,-3.3788283 3.3820558,3.3820558 0 0 0 0,6.7641113 3.3865738,3.3865738 0 0 0 3.383991,-3.385283 z"
       id="path2"
       style="fill:#24437c;stroke-width:1.2911;shape-rendering:geometricPrecision" /><path
       style="fill:#24437c;fill-opacity:1;stroke:none;stroke-width:0.0637917;stroke-linejoin:bevel"
       d="M 0.99640558,19.78621 C 0.74073487,19.71727 0.54348872,19.486028 0.50811742,19.213754 c -0.0199934,-0.153938 -0.0211218,-4.282793 -0.001213,-4.437174 0.0384367,-0.297983 0.26034472,-0.532388 0.55629498,-0.587621 0.1257885,-0.02347 7.1029376,-0.02332 7.2276736,1.46e-4 0.2124704,0.03999 0.3983788,0.184703 0.4924568,0.383315 l 0.054169,0.114355 0.00453,2.270109 c 0.00447,2.227837 0.0039,2.272151 -0.029158,2.379817 -0.061796,0.201136 -0.2362986,0.376442 -0.437099,0.43911 -0.1056093,0.03297 -0.1628904,0.03345 -3.7047508,0.03234 -2.7946019,-8.61e-4 -3.6147001,-0.0058 -3.67462736,-0.02192 z M 8.1004801,19.355697 c -0.00993,-0.02603 -2.299543,-2.500082 -2.3137067,-2.500082 -0.00748,0 -0.2337162,0.199372 -0.5027113,0.443051 -0.2956849,0.267857 -0.5117951,0.451023 -0.5465235,0.463212 -0.1095486,0.03845 -0.142566,0.0158 -0.6691114,-0.459027 -0.272775,-0.245979 -0.5015092,-0.447236 -0.5082978,-0.447236 -0.00678,0 -0.5113255,0.541154 -1.1211934,1.202566 -0.6098679,0.661414 -1.131984,1.227252 -1.1602582,1.257423 l -0.051409,0.05485 h 3.4394184 c 1.9568156,0 3.4369925,-0.0063 3.4337918,-0.01476 z m -6.008138,-1.558841 c 0.6232432,-0.67518 1.13317,-1.233924 1.13317,-1.241653 0,-0.01923 -2.1037511,-1.917841 -2.1317989,-1.923924 -0.034853,-0.0075 -0.1145859,0.06363 -0.14035513,0.125298 -0.0193624,0.04633 -0.0232706,0.411 -0.0232706,2.167415 0,1.174904 0.006459,2.109219 0.0145365,2.106089 0.007998,-0.0031 0.52446933,-0.558046 1.14771263,-1.233226 z m 6.2891372,-3.060632 c -0.014899,-0.02851 -0.050174,-0.06546 -0.078421,-0.08215 -0.049605,-0.0293 -0.052736,-0.02925 -0.091436,0.0012 -0.1036394,0.08152 -2.0968001,1.88955 -2.0943259,1.899793 0.00156,0.0064 0.5154927,0.567161 1.1420929,1.246089 l 1.1392724,1.234414 0.00497,-2.123752 c 0.00447,-1.921928 0.00234,-2.128674 -0.022117,-2.17557 z m -2.2662782,1.23094 c 0.7824713,-0.706797 1.4371431,-1.30112 1.4548272,-1.320715 l 0.03215,-0.03562 H 4.6782388 c -1.8508581,0 -2.9218752,0.0059 -2.9183137,0.01614 0.00928,0.02659 2.9045936,2.635121 2.9191574,2.630016 0.00739,-0.0026 0.6536458,-0.583 1.4361176,-1.289799 z"
       id="path932" /></g></svg>
